<?xml version="1.0" encoding="iso-8859-1"?>
<!-- Uploaded to: SVG Repo, www.svgrepo.com, Generator: SVG Repo Mixer Tools -->
<!DOCTYPE svg PUBLIC "-//W3C//DTD SVG 1.1//EN" "http://www.w3.org/Graphics/SVG/1.1/DTD/svg11.dtd">
<svg fill="#000000" version="1.1" id="Capa_1" xmlns="http://www.w3.org/2000/svg" xmlns:xlink="http://www.w3.org/1999/xlink" 
	 width="800px" height="800px" viewBox="0 0 599.846 599.846"
	 xml:space="preserve">
<g>
	<g>
		<path d="M460.052,120.731V74.979c0-28.027-22.802-50.834-50.834-50.834H200.798c-28.033,0-50.834,22.807-50.834,50.834v45.752
			h40.669V74.979c0-5.604,4.561-10.165,10.165-10.165h208.419c5.608,0,10.165,4.562,10.165,10.165v45.752H460.052z"/>
		<path d="M0,575.701h599.846V158.856H0V575.701z M45.752,204.608h508.347v325.34H45.752V204.608z"/>
		<rect x="129.629" y="273.234" width="335.509" height="25.417"/>
		<rect x="129.629" y="357.111" width="335.509" height="25.417"/>
		<rect x="129.629" y="440.989" width="335.509" height="25.417"/>
	</g>
</g>
</svg>