<?xml version="1.0" standalone="no"?>
<!DOCTYPE svg PUBLIC "-//W3C//DTD SVG 20010904//EN"
 "http://www.w3.org/TR/2001/REC-SVG-20010904/DTD/svg10.dtd">
<svg version="1.0" xmlns="http://www.w3.org/2000/svg"
 width="300.000000pt" height="77.000000pt" viewBox="0 0 300.000000 77.000000"
 preserveAspectRatio="xMidYMid meet">
<metadata>
Created by potrace 1.10, written by Peter Selinger 2001-2011
</metadata>
<g transform="translate(0.000000,77.000000) scale(0.100000,-0.100000)"
fill="#000000" stroke="none">
<path d="M810 384 c0 -254 3 -383 10 -379 6 4 10 143 10 386 0 246 -4 379 -10
379 -6 0 -10 -135 -10 -386z"/>
<path d="M82 752 l-64 -3 7 -42 c16 -103 101 -210 190 -240 26 -9 50 -15 52
-13 2 2 -22 24 -55 49 -75 58 -117 106 -132 152 -27 81 13 81 59 0 37 -66 107
-113 140 -95 23 12 29 32 33 100 3 37 6 45 23 45 17 0 21 -9 28 -60 5 -36 16
-68 27 -79 16 -17 22 -18 49 -6 37 15 88 71 107 117 9 21 21 33 34 33 28 0 32
-15 15 -57 -24 -58 -61 -99 -125 -143 -65 -44 -77 -63 -32 -51 110 32 212 159
212 265 l0 31 -65 -3 c-62 -4 -65 -5 -65 -28 0 -14 -7 -38 -14 -53 -16 -30
-80 -91 -96 -91 -6 0 -10 37 -10 85 l0 85 -66 0 -66 0 3 -85 c2 -47 2 -85 0
-85 -2 0 -18 9 -36 20 -40 25 -64 60 -79 115 l-11 40 -63 -3z"/>
<path d="M942 493 c3 -248 5 -271 24 -314 27 -59 85 -116 143 -143 61 -28 245
-30 304 -2 58 26 122 90 148 149 23 50 24 64 27 315 l3 262 -70 0 -71 0 0
-248 c0 -237 -1 -250 -22 -292 -61 -121 -265 -121 -325 0 -22 42 -23 55 -23
292 l0 248 -71 0 -70 0 3 -267z m91 213 c3 -8 6 -106 7 -218 0 -113 4 -218 9
-234 33 -115 119 -172 243 -161 77 6 132 43 167 112 25 48 26 56 29 260 3 245
4 257 35 253 l22 -3 0 -240 c0 -236 0 -241 -25 -289 -29 -56 -94 -110 -154
-128 -107 -32 -243 -4 -314 65 -67 65 -74 110 -73 460 l1 137 24 0 c13 0 26
-6 29 -14z"/>
<path d="M1630 699 l0 -60 125 3 125 3 0 -312 0 -313 70 0 70 0 0 313 0 312
123 -3 123 -3 -1 60 0 61 -317 0 -318 0 0 -61z m588 3 c-3 -14 -19 -17 -99
-20 -147 -4 -138 16 -141 -332 l-3 -285 -27 -3 -28 -3 0 284 c0 353 7 335
-138 339 -82 3 -97 6 -100 20 -3 16 11 18 155 20 87 2 209 2 271 0 100 -3 113
-5 110 -20z"/>
<path d="M2315 390 l0 -370 67 0 68 0 2 249 3 249 203 -249 203 -249 59 0 60
0 0 370 0 370 -70 0 -70 0 -2 -249 -3 -249 -203 249 -203 249 -57 0 -57 0 0
-370z m217 183 c67 -82 153 -185 190 -230 84 -102 102 -113 132 -84 20 20 21
33 24 241 l3 220 24 0 c12 0 25 -6 28 -12 7 -20 9 -611 2 -631 -5 -10 -17 -17
-34 -17 -22 1 -52 32 -181 192 -181 223 -238 288 -255 288 -6 0 -20 -9 -30
-20 -17 -18 -19 -42 -22 -200 -2 -98 -3 -197 -3 -220 0 -36 -2 -40 -25 -40
-17 0 -26 6 -27 18 -4 48 -5 609 -1 625 3 10 14 17 28 17 19 0 51 -33 147
-147z"/>
<path d="M20 385 l0 -65 123 -1 122 0 -52 -20 c-94 -36 -171 -137 -189 -247
l-7 -42 65 0 64 0 12 47 c9 31 27 60 56 90 24 24 47 43 52 43 5 0 7 -40 6 -90
l-4 -90 66 0 66 0 0 90 0 91 29 -16 c43 -21 82 -78 88 -125 l6 -40 63 0 64 0
0 38 c0 88 -100 224 -186 252 -57 19 -62 5 -9 -31 89 -61 141 -126 147 -185 2
-23 -1 -29 -17 -29 -13 0 -26 14 -40 44 -28 57 -88 111 -126 111 -35 0 -48
-22 -53 -90 -3 -56 -14 -74 -39 -64 -13 5 -17 19 -17 63 0 48 -4 61 -24 80
-23 21 -25 22 -55 7 -41 -21 -77 -62 -102 -113 -14 -28 -27 -43 -40 -43 -54 0
7 126 91 187 25 19 56 43 69 54 24 20 24 20 5 40 -15 15 -40 21 -103 26 -57 4
-84 10 -88 20 -9 23 4 27 92 34 155 12 129 36 -42 38 l-93 1 0 -65z"/>
<path d="M440 441 c-42 -12 -4 -25 85 -31 71 -4 80 -7 80 -25 0 -11 -7 -21
-15 -22 -8 -1 -45 -5 -82 -8 -36 -4 -74 -13 -85 -20 -16 -13 -2 -14 107 -15
l125 0 -3 65 -4 65 -91 -1 c-51 -1 -103 -4 -117 -8z"/>
</g>
</svg>
