<svg width="869" height="500" viewBox="0 0 869 500" fill="none" xmlns="http://www.w3.org/2000/svg">
<rect width="868.242" height="500" fill="white"/>
<mask id="path-2-outside-1_5_481" maskUnits="userSpaceOnUse" x="15.0258" y="15.0275" width="839" height="470" fill="black">
<rect fill="white" x="15.0258" y="15.0275" width="839" height="470"/>
<path fill-rule="evenodd" clip-rule="evenodd" d="M19.0258 19.0275H27.0258H841.217H849.217V27.0275V472.973V480.973H841.217H27.0258H19.0258V472.973V27.0275V19.0275ZM35.0258 27.0275H27.0258V35.0275V464.973V472.973H35.0258H833.217H841.217V464.973V35.0275V27.0275H833.217H35.0258Z"/>
</mask>
<path fill-rule="evenodd" clip-rule="evenodd" d="M19.0258 19.0275H27.0258H841.217H849.217V27.0275V472.973V480.973H841.217H27.0258H19.0258V472.973V27.0275V19.0275ZM35.0258 27.0275H27.0258V35.0275V464.973V472.973H35.0258H833.217H841.217V464.973V35.0275V27.0275H833.217H35.0258Z" fill="black"/>
<path d="M19.0258 19.0275V15.0275H15.0258V19.0275H19.0258ZM849.217 19.0275H853.217V15.0275H849.217V19.0275ZM849.217 480.973V484.973H853.217V480.973H849.217ZM19.0258 480.973H15.0258V484.973H19.0258V480.973ZM27.0258 27.0275V23.0275H23.0258V27.0275H27.0258ZM27.0258 472.973H23.0258V476.973H27.0258V472.973ZM841.217 472.973V476.973H845.217V472.973H841.217ZM841.217 27.0275H845.217V23.0275H841.217V27.0275ZM27.0258 15.0275H19.0258V23.0275H27.0258V15.0275ZM841.217 15.0275H27.0258V23.0275H841.217V15.0275ZM849.217 15.0275H841.217V23.0275H849.217V15.0275ZM853.217 27.0275V19.0275H845.217V27.0275H853.217ZM853.217 472.973V27.0275H845.217V472.973H853.217ZM853.217 480.973V472.973H845.217V480.973H853.217ZM841.217 484.973H849.217V476.973H841.217V484.973ZM27.0258 484.973H841.217V476.973H27.0258V484.973ZM19.0258 484.973H27.0258V476.973H19.0258V484.973ZM15.0258 472.973V480.973H23.0258V472.973H15.0258ZM15.0258 27.0275V472.973H23.0258V27.0275H15.0258ZM15.0258 19.0275V27.0275H23.0258V19.0275H15.0258ZM27.0258 31.0275H35.0258V23.0275H27.0258V31.0275ZM31.0258 35.0275V27.0275H23.0258V35.0275H31.0258ZM31.0258 464.973V35.0275H23.0258V464.973H31.0258ZM31.0258 472.973V464.973H23.0258V472.973H31.0258ZM35.0258 468.973H27.0258V476.973H35.0258V468.973ZM833.217 468.973H35.0258V476.973H833.217V468.973ZM841.217 468.973H833.217V476.973H841.217V468.973ZM837.217 464.973V472.973H845.217V464.973H837.217ZM837.217 35.0275V464.973H845.217V35.0275H837.217ZM837.217 27.0275V35.0275H845.217V27.0275H837.217ZM833.217 31.0275H841.217V23.0275H833.217V31.0275ZM35.0258 31.0275H833.217V23.0275H35.0258V31.0275Z" fill="black" mask="url(#path-2-outside-1_5_481)"/>
<path d="M115.182 358.455H120.818V389.273C120.818 392.455 120.068 395.295 118.568 397.795C117.083 400.28 114.985 402.242 112.273 403.682C109.561 405.106 106.379 405.818 102.727 405.818C99.0758 405.818 95.8939 405.106 93.1818 403.682C90.4697 402.242 88.3636 400.28 86.8636 397.795C85.3788 395.295 84.6364 392.455 84.6364 389.273V358.455H90.2727V388.818C90.2727 391.091 90.7727 393.114 91.7727 394.886C92.7727 396.644 94.197 398.03 96.0455 399.045C97.9091 400.045 100.136 400.545 102.727 400.545C105.318 400.545 107.545 400.045 109.409 399.045C111.273 398.03 112.697 396.644 113.682 394.886C114.682 393.114 115.182 391.091 115.182 388.818V358.455Z" fill="black"/>
<path d="M162.545 117H156.636L173.727 70.4545H179.545L196.636 117H190.727L176.818 77.8182H176.455L162.545 117ZM164.727 98.8182H188.545V103.818H164.727V98.8182Z" fill="black"/>
<path d="M737.636 117V70.4545H753.909C757.152 70.4545 759.826 71.0152 761.932 72.1364C764.038 73.2424 765.606 74.7348 766.636 76.6136C767.667 78.4773 768.182 80.5455 768.182 82.8182C768.182 84.8182 767.826 86.4697 767.114 87.7727C766.417 89.0758 765.492 90.1061 764.341 90.8636C763.205 91.6212 761.97 92.1818 760.636 92.5455V93C762.061 93.0909 763.492 93.5909 764.932 94.5C766.371 95.4091 767.576 96.7121 768.545 98.4091C769.515 100.106 770 102.182 770 104.636C770 106.97 769.47 109.068 768.409 110.932C767.348 112.795 765.674 114.273 763.386 115.364C761.098 116.455 758.121 117 754.455 117H737.636ZM743.273 112H754.455C758.136 112 760.75 111.288 762.295 109.864C763.856 108.424 764.636 106.682 764.636 104.636C764.636 103.061 764.235 101.606 763.432 100.273C762.629 98.9242 761.485 97.8485 760 97.0455C758.515 96.2273 756.758 95.8182 754.727 95.8182H743.273V112ZM743.273 90.9091H753.727C755.424 90.9091 756.955 90.5758 758.318 89.9091C759.697 89.2424 760.788 88.303 761.591 87.0909C762.409 85.8788 762.818 84.4545 762.818 82.8182C762.818 80.7727 762.106 79.0379 760.682 77.6136C759.258 76.1742 757 75.4545 753.909 75.4545H743.273V90.9091Z" fill="black"/>
<circle cx="365.027" cy="243.027" r="155.527" fill="#FFE100" stroke="black" stroke-width="7"/>
<circle cx="533.959" cy="243.027" r="155.527" fill="#FFE100" stroke="black" stroke-width="7"/>
<mask id="path-9-outside-2_5_481" maskUnits="userSpaceOnUse" x="376" y="110" width="146" height="266" fill="black">
<rect fill="white" x="376" y="110" width="146" height="266"/>
<path fill-rule="evenodd" clip-rule="evenodd" d="M448.561 369.845C489.3 342.572 516.122 296.129 516.122 243.422C516.122 190.715 489.3 144.273 448.561 117C407.822 144.273 381 190.715 381 243.422C381 296.129 407.822 342.572 448.561 369.845Z"/>
</mask>
<path fill-rule="evenodd" clip-rule="evenodd" d="M448.561 369.845C489.3 342.572 516.122 296.129 516.122 243.422C516.122 190.715 489.3 144.273 448.561 117C407.822 144.273 381 190.715 381 243.422C381 296.129 407.822 342.572 448.561 369.845Z" fill="#FFE100"/>
<path d="M448.561 369.845L445.78 374L448.561 375.862L451.343 374L448.561 369.845ZM448.561 117L451.343 112.845L448.561 110.983L445.78 112.845L448.561 117ZM511.122 243.422C511.122 294.391 485.192 339.305 445.78 365.69L451.343 374C493.409 345.838 521.122 297.868 521.122 243.422H511.122ZM445.78 121.155C485.192 147.539 511.122 192.454 511.122 243.422H521.122C521.122 188.977 493.409 141.007 451.343 112.845L445.78 121.155ZM386 243.422C386 192.454 411.931 147.539 451.343 121.155L445.78 112.845C403.713 141.007 376 188.977 376 243.422H386ZM451.343 365.69C411.931 339.305 386 294.391 386 243.422H376C376 297.868 403.713 345.838 445.78 374L451.343 365.69Z" fill="black" mask="url(#path-9-outside-2_5_481)"/>
</svg>
