<svg width="869" height="500" viewBox="0 0 869 500" fill="none" xmlns="http://www.w3.org/2000/svg">
<rect width="868.242" height="500" fill="white"/>
<mask id="path-2-outside-1_1_441" maskUnits="userSpaceOnUse" x="15.0258" y="15.0275" width="839" height="470" fill="black">
<rect fill="white" x="15.0258" y="15.0275" width="839" height="470"/>
<path fill-rule="evenodd" clip-rule="evenodd" d="M27.0258 19.0275H19.0258V27.0275V472.973V480.973H27.0258H841.217H849.217V472.973V27.0275V19.0275H841.217H27.0258ZM27.0258 27.0275H35.0258H833.217H841.217V35.0275V464.973V472.973H833.217H35.0258H27.0258V464.973V35.0275V27.0275ZM523.889 243.244C523.889 297.272 496.947 345.006 455.765 373.746C478.575 387.414 505.267 395.271 533.794 395.271C617.756 395.271 685.821 327.206 685.821 243.244C685.821 159.282 617.756 91.2169 533.794 91.2169C505.267 91.2169 478.575 99.074 455.765 112.742C496.947 141.482 523.889 189.216 523.889 243.244ZM364.862 402.271C395.896 402.271 424.854 393.382 449.328 378.01C473.802 393.382 502.76 402.271 533.794 402.271C621.622 402.271 692.821 331.072 692.821 243.244C692.821 155.416 621.622 84.2169 533.794 84.2169C502.76 84.2169 473.802 93.1065 449.328 108.478C424.854 93.1065 395.896 84.2169 364.862 84.2169C277.034 84.2169 205.835 155.416 205.835 243.244C205.835 331.072 277.034 402.271 364.862 402.271ZM364.862 395.271C393.389 395.271 420.081 387.414 442.891 373.746C401.709 345.006 374.767 297.272 374.767 243.244C374.767 189.216 401.709 141.482 442.891 112.742C420.081 99.074 393.389 91.2169 364.862 91.2169C280.9 91.2169 212.835 159.282 212.835 243.244C212.835 327.206 280.9 395.271 364.862 395.271ZM381.767 243.244C381.767 295.951 408.589 342.393 449.328 369.666C490.067 342.393 516.889 295.951 516.889 243.244C516.889 190.537 490.067 144.095 449.328 116.822C408.589 144.095 381.767 190.537 381.767 243.244Z"/>
</mask>
<path fill-rule="evenodd" clip-rule="evenodd" d="M27.0258 19.0275H19.0258V27.0275V472.973V480.973H27.0258H841.217H849.217V472.973V27.0275V19.0275H841.217H27.0258ZM27.0258 27.0275H35.0258H833.217H841.217V35.0275V464.973V472.973H833.217H35.0258H27.0258V464.973V35.0275V27.0275ZM523.889 243.244C523.889 297.272 496.947 345.006 455.765 373.746C478.575 387.414 505.267 395.271 533.794 395.271C617.756 395.271 685.821 327.206 685.821 243.244C685.821 159.282 617.756 91.2169 533.794 91.2169C505.267 91.2169 478.575 99.074 455.765 112.742C496.947 141.482 523.889 189.216 523.889 243.244ZM364.862 402.271C395.896 402.271 424.854 393.382 449.328 378.01C473.802 393.382 502.76 402.271 533.794 402.271C621.622 402.271 692.821 331.072 692.821 243.244C692.821 155.416 621.622 84.2169 533.794 84.2169C502.76 84.2169 473.802 93.1065 449.328 108.478C424.854 93.1065 395.896 84.2169 364.862 84.2169C277.034 84.2169 205.835 155.416 205.835 243.244C205.835 331.072 277.034 402.271 364.862 402.271ZM364.862 395.271C393.389 395.271 420.081 387.414 442.891 373.746C401.709 345.006 374.767 297.272 374.767 243.244C374.767 189.216 401.709 141.482 442.891 112.742C420.081 99.074 393.389 91.2169 364.862 91.2169C280.9 91.2169 212.835 159.282 212.835 243.244C212.835 327.206 280.9 395.271 364.862 395.271ZM381.767 243.244C381.767 295.951 408.589 342.393 449.328 369.666C490.067 342.393 516.889 295.951 516.889 243.244C516.889 190.537 490.067 144.095 449.328 116.822C408.589 144.095 381.767 190.537 381.767 243.244Z" fill="black"/>
<path d="M19.0258 19.0275V15.0275H15.0258V19.0275H19.0258ZM19.0258 480.973H15.0258V484.973H19.0258V480.973ZM849.217 480.973V484.973H853.217V480.973H849.217ZM849.217 19.0275H853.217V15.0275H849.217V19.0275ZM27.0258 27.0275V23.0275H23.0258V27.0275H27.0258ZM841.217 27.0275H845.217V23.0275H841.217V27.0275ZM841.217 472.973V476.973H845.217V472.973H841.217ZM27.0258 472.973H23.0258V476.973H27.0258V472.973ZM455.765 373.746L453.476 370.466L448.409 374.001L453.709 377.177L455.765 373.746ZM455.765 112.742L453.709 109.311L448.409 112.487L453.476 116.022L455.765 112.742ZM449.328 378.01L451.456 374.622L449.328 373.286L447.201 374.622L449.328 378.01ZM449.328 108.478L447.201 111.866L449.328 113.202L451.456 111.866L449.328 108.478ZM442.891 373.746L444.947 377.177L450.247 374.001L445.18 370.466L442.891 373.746ZM442.891 112.742L445.18 116.022L450.247 112.487L444.947 109.311L442.891 112.742ZM449.328 369.666L447.103 372.99L449.328 374.48L451.553 372.99L449.328 369.666ZM449.328 116.822L451.553 113.498L449.328 112.008L447.103 113.498L449.328 116.822ZM19.0258 23.0275H27.0258V15.0275H19.0258V23.0275ZM23.0258 27.0275V19.0275H15.0258V27.0275H23.0258ZM23.0258 472.973V27.0275H15.0258V472.973H23.0258ZM23.0258 480.973V472.973H15.0258V480.973H23.0258ZM27.0258 476.973H19.0258V484.973H27.0258V476.973ZM841.217 476.973H27.0258V484.973H841.217V476.973ZM849.217 476.973H841.217V484.973H849.217V476.973ZM845.217 472.973V480.973H853.217V472.973H845.217ZM845.217 27.0275V472.973H853.217V27.0275H845.217ZM845.217 19.0275V27.0275H853.217V19.0275H845.217ZM841.217 23.0275H849.217V15.0275H841.217V23.0275ZM27.0258 23.0275H841.217V15.0275H27.0258V23.0275ZM35.0258 23.0275H27.0258V31.0275H35.0258V23.0275ZM833.217 23.0275H35.0258V31.0275H833.217V23.0275ZM841.217 23.0275H833.217V31.0275H841.217V23.0275ZM845.217 35.0275V27.0275H837.217V35.0275H845.217ZM845.217 464.973V35.0275H837.217V464.973H845.217ZM845.217 472.973V464.973H837.217V472.973H845.217ZM833.217 476.973H841.217V468.973H833.217V476.973ZM35.0258 476.973H833.217V468.973H35.0258V476.973ZM27.0258 476.973H35.0258V468.973H27.0258V476.973ZM23.0258 464.973V472.973H31.0258V464.973H23.0258ZM23.0258 35.0275V464.973H31.0258V35.0275H23.0258ZM23.0258 27.0275V35.0275H31.0258V27.0275H23.0258ZM458.054 377.026C500.262 347.57 527.889 298.634 527.889 243.244H519.889C519.889 295.909 493.632 342.442 453.476 370.466L458.054 377.026ZM533.794 391.271C506.011 391.271 480.028 383.621 457.821 370.315L453.709 377.177C477.123 391.207 504.523 399.271 533.794 399.271V391.271ZM681.821 243.244C681.821 324.997 615.547 391.271 533.794 391.271V399.271C619.965 399.271 689.821 329.415 689.821 243.244H681.821ZM533.794 95.2169C615.547 95.2169 681.821 161.491 681.821 243.244H689.821C689.821 157.073 619.965 87.2169 533.794 87.2169V95.2169ZM457.821 116.173C480.028 102.867 506.011 95.2169 533.794 95.2169V87.2169C504.523 87.2169 477.123 95.281 453.709 109.311L457.821 116.173ZM527.889 243.244C527.889 187.854 500.262 138.918 458.054 109.462L453.476 116.022C493.632 144.046 519.889 190.579 519.889 243.244H527.889ZM447.201 374.622C423.345 389.606 395.122 398.271 364.862 398.271V406.271C396.671 406.271 426.363 397.157 451.456 381.397L447.201 374.622ZM533.794 398.271C503.534 398.271 475.311 389.606 451.456 374.622L447.201 381.397C472.293 397.157 501.985 406.271 533.794 406.271V398.271ZM688.821 243.244C688.821 328.863 619.413 398.271 533.794 398.271V406.271C623.831 406.271 696.821 333.281 696.821 243.244H688.821ZM533.794 88.2169C619.413 88.2169 688.821 157.625 688.821 243.244H696.821C696.821 153.207 623.831 80.2169 533.794 80.2169V88.2169ZM451.456 111.866C475.311 96.8824 503.534 88.2169 533.794 88.2169V80.2169C501.985 80.2169 472.293 89.3306 447.201 105.091L451.456 111.866ZM364.862 88.2169C395.122 88.2169 423.345 96.8824 447.201 111.866L451.456 105.091C426.363 89.3306 396.671 80.2169 364.862 80.2169V88.2169ZM209.835 243.244C209.835 157.625 279.243 88.2169 364.862 88.2169V80.2169C274.825 80.2169 201.835 153.207 201.835 243.244H209.835ZM364.862 398.271C279.243 398.271 209.835 328.863 209.835 243.244H201.835C201.835 333.281 274.825 406.271 364.862 406.271V398.271ZM440.835 370.315C418.629 383.621 392.645 391.271 364.862 391.271V399.271C394.133 399.271 421.533 391.207 444.947 377.177L440.835 370.315ZM370.767 243.244C370.767 298.634 398.394 347.57 440.602 377.026L445.18 370.466C405.024 342.442 378.767 295.909 378.767 243.244H370.767ZM440.602 109.462C398.394 138.918 370.767 187.854 370.767 243.244H378.767C378.767 190.579 405.024 144.046 445.18 116.022L440.602 109.462ZM364.862 95.2169C392.645 95.2169 418.629 102.867 440.835 116.173L444.947 109.311C421.533 95.281 394.133 87.2169 364.862 87.2169V95.2169ZM216.835 243.244C216.835 161.491 283.109 95.2169 364.862 95.2169V87.2169C278.691 87.2169 208.835 157.073 208.835 243.244H216.835ZM364.862 391.271C283.109 391.271 216.835 324.997 216.835 243.244H208.835C208.835 329.415 278.691 399.271 364.862 399.271V391.271ZM451.553 366.342C411.876 339.78 385.767 294.56 385.767 243.244H377.767C377.767 297.342 405.302 345.006 447.103 372.99L451.553 366.342ZM512.889 243.244C512.889 294.56 486.78 339.78 447.103 366.342L451.553 372.99C493.354 345.006 520.889 297.342 520.889 243.244H512.889ZM447.103 120.146C486.78 146.708 512.889 191.928 512.889 243.244H520.889C520.889 189.146 493.354 141.482 451.553 113.498L447.103 120.146ZM385.767 243.244C385.767 191.928 411.876 146.708 451.553 120.146L447.103 113.498C405.302 141.482 377.767 189.146 377.767 243.244H385.767Z" fill="black" mask="url(#path-2-outside-1_1_441)"/>
<path d="M115.182 358.455H120.818V389.273C120.818 392.455 120.068 395.295 118.568 397.795C117.083 400.28 114.985 402.242 112.273 403.682C109.561 405.106 106.379 405.818 102.727 405.818C99.0758 405.818 95.8939 405.106 93.1818 403.682C90.4697 402.242 88.3636 400.28 86.8636 397.795C85.3788 395.295 84.6364 392.455 84.6364 389.273V358.455H90.2727V388.818C90.2727 391.091 90.7727 393.114 91.7727 394.886C92.7727 396.644 94.197 398.03 96.0455 399.045C97.9091 400.045 100.136 400.545 102.727 400.545C105.318 400.545 107.545 400.045 109.409 399.045C111.273 398.03 112.697 396.644 113.682 394.886C114.682 393.114 115.182 391.091 115.182 388.818V358.455Z" fill="black"/>
<path d="M162.545 117H156.636L173.727 70.4545H179.545L196.636 117H190.727L176.818 77.8182H176.455L162.545 117ZM164.727 98.8182H188.545V103.818H164.727V98.8182Z" fill="black"/>
<path d="M737.636 117V70.4545H753.909C757.152 70.4545 759.826 71.0152 761.932 72.1364C764.038 73.2424 765.606 74.7348 766.636 76.6136C767.667 78.4773 768.182 80.5455 768.182 82.8182C768.182 84.8182 767.826 86.4697 767.114 87.7727C766.417 89.0758 765.492 90.1061 764.341 90.8636C763.205 91.6212 761.97 92.1818 760.636 92.5455V93C762.061 93.0909 763.492 93.5909 764.932 94.5C766.371 95.4091 767.576 96.7121 768.545 98.4091C769.515 100.106 770 102.182 770 104.636C770 106.97 769.47 109.068 768.409 110.932C767.348 112.795 765.674 114.273 763.386 115.364C761.098 116.455 758.121 117 754.455 117H737.636ZM743.273 112H754.455C758.136 112 760.75 111.288 762.295 109.864C763.856 108.424 764.636 106.682 764.636 104.636C764.636 103.061 764.235 101.606 763.432 100.273C762.629 98.9242 761.485 97.8485 760 97.0455C758.515 96.2273 756.758 95.8182 754.727 95.8182H743.273V112ZM743.273 90.9091H753.727C755.424 90.9091 756.955 90.5758 758.318 89.9091C759.697 89.2424 760.788 88.303 761.591 87.0909C762.409 85.8788 762.818 84.4545 762.818 82.8182C762.818 80.7727 762.106 79.0379 760.682 77.6136C759.258 76.1742 757 75.4545 753.909 75.4545H743.273V90.9091Z" fill="black"/>
</svg>
