<svg width="869" height="500" viewBox="0 0 869 500" fill="none" xmlns="http://www.w3.org/2000/svg">
<rect width="868.242" height="500" fill="white"/>
<mask id="path-2-outside-1_8_24" maskUnits="userSpaceOnUse" x="15.0258" y="15.0275" width="839" height="470" fill="black">
<rect fill="white" x="15.0258" y="15.0275" width="839" height="470"/>
<path fill-rule="evenodd" clip-rule="evenodd" d="M19.0258 19.0275H27.0258H841.217H849.217V27.0275V472.973V480.973H841.217H27.0258H19.0258V472.973V27.0275V19.0275ZM35.0258 27.0275H27.0258V35.0275V464.973V472.973H35.0258H833.217H841.217V464.973V35.0275V27.0275H833.217H35.0258Z"/>
</mask>
<path fill-rule="evenodd" clip-rule="evenodd" d="M19.0258 19.0275H27.0258H841.217H849.217V27.0275V472.973V480.973H841.217H27.0258H19.0258V472.973V27.0275V19.0275ZM35.0258 27.0275H27.0258V35.0275V464.973V472.973H35.0258H833.217H841.217V464.973V35.0275V27.0275H833.217H35.0258Z" fill="black"/>
<path d="M19.0258 19.0275V15.0275H15.0258V19.0275H19.0258ZM849.217 19.0275H853.217V15.0275H849.217V19.0275ZM849.217 480.973V484.973H853.217V480.973H849.217ZM19.0258 480.973H15.0258V484.973H19.0258V480.973ZM27.0258 27.0275V23.0275H23.0258V27.0275H27.0258ZM27.0258 472.973H23.0258V476.973H27.0258V472.973ZM841.217 472.973V476.973H845.217V472.973H841.217ZM841.217 27.0275H845.217V23.0275H841.217V27.0275ZM27.0258 15.0275H19.0258V23.0275H27.0258V15.0275ZM841.217 15.0275H27.0258V23.0275H841.217V15.0275ZM849.217 15.0275H841.217V23.0275H849.217V15.0275ZM853.217 27.0275V19.0275H845.217V27.0275H853.217ZM853.217 472.973V27.0275H845.217V472.973H853.217ZM853.217 480.973V472.973H845.217V480.973H853.217ZM841.217 484.973H849.217V476.973H841.217V484.973ZM27.0258 484.973H841.217V476.973H27.0258V484.973ZM19.0258 484.973H27.0258V476.973H19.0258V484.973ZM15.0258 472.973V480.973H23.0258V472.973H15.0258ZM15.0258 27.0275V472.973H23.0258V27.0275H15.0258ZM15.0258 19.0275V27.0275H23.0258V19.0275H15.0258ZM27.0258 31.0275H35.0258V23.0275H27.0258V31.0275ZM31.0258 35.0275V27.0275H23.0258V35.0275H31.0258ZM31.0258 464.973V35.0275H23.0258V464.973H31.0258ZM31.0258 472.973V464.973H23.0258V472.973H31.0258ZM35.0258 468.973H27.0258V476.973H35.0258V468.973ZM833.217 468.973H35.0258V476.973H833.217V468.973ZM841.217 468.973H833.217V476.973H841.217V468.973ZM837.217 464.973V472.973H845.217V464.973H837.217ZM837.217 35.0275V464.973H845.217V35.0275H837.217ZM837.217 27.0275V35.0275H845.217V27.0275H837.217ZM833.217 31.0275H841.217V23.0275H833.217V31.0275ZM35.0258 31.0275H833.217V23.0275H35.0258V31.0275Z" fill="black" mask="url(#path-2-outside-1_8_24)"/>
<path d="M31 31H836V469H31V31Z" fill="#FFE100"/>
<path d="M108.182 381.455H113.818V412.273C113.818 415.455 113.068 418.295 111.568 420.795C110.083 423.28 107.985 425.242 105.273 426.682C102.561 428.106 99.3788 428.818 95.7273 428.818C92.0758 428.818 88.8939 428.106 86.1818 426.682C83.4697 425.242 81.3636 423.28 79.8636 420.795C78.3788 418.295 77.6364 415.455 77.6364 412.273V381.455H83.2727V411.818C83.2727 414.091 83.7727 416.114 84.7727 417.886C85.7727 419.644 87.197 421.03 89.0455 422.045C90.9091 423.045 93.1364 423.545 95.7273 423.545C98.3182 423.545 100.545 423.045 102.409 422.045C104.273 421.03 105.697 419.644 106.682 417.886C107.682 416.114 108.182 414.091 108.182 411.818V381.455Z" fill="black"/>
<path d="M398.545 148H392.636L409.727 101.455H415.545L432.636 148H426.727L412.818 108.818H412.455L398.545 148ZM400.727 129.818H424.545V134.818H400.727V129.818Z" fill="black"/>
<circle cx="612.027" cy="238.027" r="155.527" fill="white" stroke="black" stroke-width="7"/>
</svg>
